<svg width="37" height="36" viewBox="0 0 37 36" fill="none" xmlns="http://www.w3.org/2000/svg">
<path d="M18.4737 0C14.8199 0 11.2483 1.05568 8.21027 3.03354C5.17232 5.0114 2.80445 7.82261 1.40623 11.1117C0.00800363 14.4007 -0.357835 18.0199 0.354974 21.5116C1.06779 25.0033 2.82725 28.2105 5.41082 30.7277C7.99441 33.245 11.2861 34.9595 14.8697 35.6542C18.4532 36.3486 22.1676 35.9921 25.5433 34.63C28.919 33.2674 31.8039 30.9603 33.834 28.0002C35.8639 25.0402 36.9474 21.56 36.9474 18C36.9474 13.2261 35.0011 8.6477 31.5366 5.27207C28.072 1.89641 23.3732 0 18.4737 0ZM29.8217 20.6305C29.8217 20.9905 28.1538 21.042 28.1538 21.402C28.1538 21.762 29.8034 22.2505 29.8034 22.7469C29.8034 23.3536 26.4041 23.4436 26.4041 24.0506C26.4041 24.6986 28.9825 24.4979 28.9825 25.2C28.9825 26.028 22.5062 25.6422 22.5062 26.5037C22.5062 26.8327 23.335 26.9691 24.3722 27.0771C24.9422 27.1388 24.818 27.4113 24.4936 27.5915C22.6805 28.6692 20.5976 29.2396 18.4737 29.2396C16.3498 29.2396 14.2669 28.6692 12.4539 27.5915C12.1319 27.3986 12.0052 27.126 12.5753 27.0771C13.6125 26.9691 14.4438 26.82 14.4438 26.5037C14.4438 25.6422 7.96478 26.028 7.96478 25.2C7.96478 24.4979 10.5459 24.6857 10.5459 24.0506C10.5459 23.4436 7.14408 23.3536 7.14408 22.7469C7.14408 22.2505 8.79617 21.7697 8.79617 21.402C8.79617 21.0342 7.12559 20.9931 7.12559 20.6305C7.12559 20.268 8.34487 20.034 8.34487 19.7768C8.34487 19.2908 6.92764 20.1754 6.92764 18C6.92764 15.0163 8.14415 12.1548 10.3094 10.045C12.4748 7.93525 15.4115 6.74998 18.4737 6.74998C21.5359 6.74998 24.4727 7.93525 26.638 10.045C28.8033 12.1548 30.0196 15.0163 30.0196 18C30.0196 20.1754 28.6026 19.2857 28.6026 19.7768C28.6026 20.034 29.8217 20.2423 29.8217 20.6305Z" fill="#1B59F8"/>
</svg>
