<svg width="65" height="19" viewBox="0 0 65 19" fill="none" xmlns="http://www.w3.org/2000/svg">
<path d="M0.210938 18.2341V0.713177H2.87599V15.9584H10.8798V18.2341H0.210938Z" fill="black" fill-opacity="0.7"/>
<path d="M28.3084 9.47363C28.3084 11.3444 27.9634 12.9527 27.2735 14.2987C26.5835 15.639 25.6376 16.6714 24.4359 17.3957C23.24 18.1143 21.8801 18.4736 20.3564 18.4736C18.827 18.4736 17.4614 18.1143 16.2597 17.3957C15.0637 16.6714 14.1207 15.6362 13.4307 14.2902C12.7408 12.9442 12.3958 11.3387 12.3958 9.47363C12.3958 7.60291 12.7408 5.9974 13.4307 4.65709C14.1207 3.31108 15.0637 2.27877 16.2597 1.56013C17.4614 0.8358 18.827 0.473633 20.3564 0.473633C21.8801 0.473633 23.24 0.8358 24.4359 1.56013C25.6376 2.27877 26.5835 3.31108 27.2735 4.65709C27.9634 5.9974 28.3084 7.60291 28.3084 9.47363ZM25.6693 9.47363C25.6693 8.04778 25.4364 6.84721 24.9707 5.87192C24.5107 4.89093 23.8782 4.14949 23.0732 3.64759C22.274 3.13998 21.3684 2.88618 20.3564 2.88618C19.3387 2.88618 18.4302 3.13998 17.631 3.64759C16.8318 4.14949 16.1993 4.89093 15.7335 5.87192C15.2736 6.84721 15.0436 8.04778 15.0436 9.47363C15.0436 10.8995 15.2736 12.1029 15.7335 13.0839C16.1993 14.0592 16.8318 14.8006 17.631 15.3082C18.4302 15.8101 19.3387 16.0611 20.3564 16.0611C21.3684 16.0611 22.274 15.8101 23.0732 15.3082C23.8782 14.8006 24.5107 14.0592 24.9707 13.0839C25.4364 12.1029 25.6693 10.8995 25.6693 9.47363Z" fill="black" fill-opacity="0.7"/>
<path d="M43.3179 6.24835C43.1511 5.72934 42.9269 5.26451 42.6451 4.85386C42.3691 4.43751 42.0385 4.0839 41.6533 3.79303C41.268 3.49645 40.8282 3.27116 40.3337 3.11717C39.845 2.96318 39.3074 2.88618 38.7209 2.88618C37.7261 2.88618 36.8292 3.13998 36.0299 3.64759C35.2307 4.15519 34.5982 4.89949 34.1325 5.88048C33.6725 6.85576 33.4425 8.05063 33.4425 9.46508C33.4425 10.8852 33.6754 12.0858 34.1411 13.0668C34.6069 14.0478 35.2451 14.7921 36.0558 15.2997C36.8665 15.8073 37.7894 16.0611 38.8244 16.0611C39.7846 16.0611 40.6212 15.8672 41.3342 15.4793C42.0529 15.0915 42.6078 14.544 42.9987 13.8368C43.3955 13.1238 43.5939 12.2854 43.5939 11.3215L44.2838 11.4499H39.2297V9.26831H46.1727V11.2617C46.1727 12.7331 45.8564 14.0107 45.2239 15.0944C44.5972 16.1723 43.729 17.005 42.6193 17.5925C41.5153 18.1799 40.2503 18.4736 38.8244 18.4736C37.2259 18.4736 35.8229 18.1086 34.6155 17.3786C33.4138 16.6485 32.4765 15.6134 31.8038 14.2731C31.1311 12.9271 30.7947 11.3301 30.7947 9.48219C30.7947 8.08485 30.9902 6.8301 31.3812 5.71793C31.7722 4.60576 32.3213 3.66185 33.0285 2.88618C33.7415 2.10481 34.5781 1.5088 35.5383 1.09816C36.5043 0.681808 37.5594 0.473633 38.7036 0.473633C39.6581 0.473633 40.5464 0.613367 41.3687 0.892834C42.1966 1.1723 42.9326 1.56869 43.5766 2.082C44.2263 2.59531 44.7639 3.20557 45.1894 3.9128C45.6149 4.61432 45.9024 5.39283 46.0519 6.24835H43.3179Z" fill="black" fill-opacity="0.7"/>
<path d="M64.632 9.47363C64.632 11.3444 64.287 12.9527 63.597 14.2987C62.907 15.639 61.9612 16.6714 60.7595 17.3957C59.5635 18.1143 58.2037 18.4736 56.68 18.4736C55.1505 18.4736 53.7849 18.1143 52.5832 17.3957C51.3872 16.6714 50.4443 15.6362 49.7543 14.2902C49.0643 12.9442 48.7193 11.3387 48.7193 9.47363C48.7193 7.60291 49.0643 5.9974 49.7543 4.65709C50.4443 3.31108 51.3872 2.27877 52.5832 1.56013C53.7849 0.8358 55.1505 0.473633 56.68 0.473633C58.2037 0.473633 59.5635 0.8358 60.7595 1.56013C61.9612 2.27877 62.907 3.31108 63.597 4.65709C64.287 5.9974 64.632 7.60291 64.632 9.47363ZM61.9928 9.47363C61.9928 8.04778 61.7599 6.84721 61.2942 5.87192C60.8342 4.89093 60.2017 4.14949 59.3968 3.64759C58.5975 3.13998 57.6919 2.88618 56.68 2.88618C55.6622 2.88618 54.7538 3.13998 53.9545 3.64759C53.1553 4.14949 52.5228 4.89093 52.0571 5.87192C51.5971 6.84721 51.3671 8.04778 51.3671 9.47363C51.3671 10.8995 51.5971 12.1029 52.0571 13.0839C52.5228 14.0592 53.1553 14.8006 53.9545 15.3082C54.7538 15.8101 55.6622 16.0611 56.68 16.0611C57.6919 16.0611 58.5975 15.8101 59.3968 15.3082C60.2017 14.8006 60.8342 14.0592 61.2942 13.0839C61.7599 12.1029 61.9928 10.8995 61.9928 9.47363Z" fill="black" fill-opacity="0.7"/>
</svg>
